<svg xmlns="http://www.w3.org/2000/svg" xmlns:xlink="http://www.w3.org/1999/xlink" viewBox="0 0 2000 2000" width="2000" height="2000" preserveAspectRatio="xMidYMid meet" style="width: 100%; height: 100%; transform: translate3d(0px, 0px, 0px); content-visibility: visible;" id="Online Delivery Service"><defs><clipPath id="__lottie_element_14778"><rect width="2000" height="2000" x="0" y="0"/></clipPath></defs><g clip-path="url(#__lottie_element_14778)"><g transform="matrix(1,0,0,1,145.87396240234375,271.60504150390625)" opacity="1" style="display: block;"><g opacity="1" transform="matrix(1,0,0,1,882.5709838867188,702.9439697265625)"><path fill="rgb(255,243,227)" fill-opacity="1" d=" M-835.2249755859375,320.7409973144531 C-882.3209838867188,226.78900146484375 -880.9650268554688,148.9530029296875 -868.0469970703125,61.01100158691406 C-850.9349975585938,-55.47600173950195 -797.2009887695312,-230.98199462890625 -637.0469970703125,-395.7120056152344 C-365.0369873046875,-675.4929809570312 -58.05400085449219,-702.6939697265625 101.26499938964844,-671.6069946289062 C260.5849914550781,-640.52099609375 289.01300048828125,-553.4229736328125 314.98699951171875,-512.2880249023438 C346.5880126953125,-462.24200439453125 415.84600830078125,-326.97198486328125 575.3380126953125,-349.0820007324219 C764.7319946289062,-375.3370056152344 882.3209838867188,-213.07699584960938 878.4349975585938,-69.3010025024414 C874.5490112304688,74.4749984741211 820.14697265625,295.968994140625 618.0830078125,412.54400634765625 C416.0190124511719,529.1199951171875 245.04100036621094,408.6579895019531 105.1500015258789,459.17401123046875 C-34.7400016784668,509.69000244140625 -276.635009765625,702.6939697265625 -521.4439697265625,601.6619873046875 C-705.0499877929688,525.8880004882812 -763.8389892578125,463.1510009765625 -835.2249755859375,320.7409973144531z"/></g></g><g transform="matrix(1,0,0,1,-16.90496063232422,556.4429931640625)" opacity="1" style="display: block;"><g opacity="1" transform="matrix(1,0,0,1,129.76199340820312,59.98099899291992)"><path fill="rgb(255,255,255)" fill-opacity="1" d=" M-78.09500122070312,-5.26800012588501 C-78.09500122070312,-5.26800012588501 -129.51199340820312,-17.8799991607666 -129.51199340820312,31.597000122070312 C-129.51199340820312,31.597000122070312 -125.63099670410156,51.970001220703125 -101.37799835205078,57.790000915527344 C-101.37799835205078,57.790000915527344 125.63200378417969,59.73099899291992 125.63200378417969,59.73099899291992 C125.63200378417969,59.73099899291992 129.51300048828125,14.135000228881836 86.8270034790039,19.954999923706055 C86.8270034790039,19.954999923706055 74.21499633789062,-9.14900016784668 45.111000061035156,-2.3580000400543213 C45.111000061035156,-2.3580000400543213 44.249000549316406,-59.73099899291992 -19.886999130249023,-58.625 C-76.15499877929688,-57.654998779296875 -78.09500122070312,-5.26800012588501 -78.09500122070312,-5.26800012588501z"/></g></g><g transform="matrix(1,0,0,1,1478.919189453125,544.4429931640625)" opacity="1" style="display: block;"><g opacity="1" transform="matrix(1,0,0,1,129.76199340820312,59.98099899291992)"><path fill="rgb(255,255,255)" fill-opacity="1" d=" M-78.09500122070312,-5.26800012588501 C-78.09500122070312,-5.26800012588501 -129.51199340820312,-17.8799991607666 -129.51199340820312,31.597000122070312 C-129.51199340820312,31.597000122070312 -125.63099670410156,51.970001220703125 -101.37799835205078,57.790000915527344 C-101.37799835205078,57.790000915527344 125.63200378417969,59.73099899291992 125.63200378417969,59.73099899291992 C125.63200378417969,59.73099899291992 129.51300048828125,14.135000228881836 86.8270034790039,19.954999923706055 C86.8270034790039,19.954999923706055 74.21499633789062,-9.14900016784668 45.111000061035156,-2.3580000400543213 C45.111000061035156,-2.3580000400543213 44.249000549316406,-59.73099899291992 -19.886999130249023,-58.625 C-76.15499877929688,-57.654998779296875 -78.09500122070312,-5.26800012588501 -78.09500122070312,-5.26800012588501z"/></g></g><g transform="matrix(-1,0,0,1,1280.7244873046875,369.9219970703125)" opacity="1" style="display: block;"><g opacity="1" transform="matrix(1,0,0,1,98.96299743652344,45.777000427246094)"><path fill="rgb(255,255,255)" fill-opacity="1" d=" M-59.52299880981445,-4.015999794006348 C-59.52299880981445,-4.015999794006348 -98.71399688720703,-13.628999710083008 -98.71399688720703,24.082000732421875 C-98.71399688720703,24.082000732421875 -95.75599670410156,39.611000061035156 -77.2699966430664,44.04800033569336 C-77.2699966430664,44.04800033569336 95.75499725341797,45.527000427246094 95.75499725341797,45.527000427246094 C95.75499725341797,45.527000427246094 98.71299743652344,10.77299976348877 66.1780014038086,15.210000038146973 C66.1780014038086,15.210000038146973 56.56700134277344,-6.973999977111816 34.38399887084961,-1.7979999780654907 C34.38399887084961,-1.7979999780654907 33.72700119018555,-45.527000427246094 -15.157999992370605,-44.683998107910156 C-58.04399871826172,-43.94499969482422 -59.52299880981445,-4.015999794006348 -59.52299880981445,-4.015999794006348z"/></g></g><g transform="matrix(-1,0,0,1,2944.724609375,369.9219970703125)" opacity="1" style="display: block;"><g opacity="1" transform="matrix(1,0,0,1,98.96299743652344,45.777000427246094)"><path fill="rgb(255,255,255)" fill-opacity="1" d=" M-59.52299880981445,-4.015999794006348 C-59.52299880981445,-4.015999794006348 -98.71399688720703,-13.628999710083008 -98.71399688720703,24.082000732421875 C-98.71399688720703,24.082000732421875 -95.75599670410156,39.611000061035156 -77.2699966430664,44.04800033569336 C-77.2699966430664,44.04800033569336 95.75499725341797,45.527000427246094 95.75499725341797,45.527000427246094 C95.75499725341797,45.527000427246094 98.71299743652344,10.77299976348877 66.1780014038086,15.210000038146973 C66.1780014038086,15.210000038146973 56.56700134277344,-6.973999977111816 34.38399887084961,-1.7979999780654907 C34.38399887084961,-1.7979999780654907 33.72700119018555,-45.527000427246094 -15.157999992370605,-44.683998107910156 C-58.04399871826172,-43.94499969482422 -59.52299880981445,-4.015999794006348 -59.52299880981445,-4.015999794006348z"/></g></g><g transform="matrix(1,0,0,1,525.3370361328125,1389.6070556640625)" opacity="1" style="display: block;"><g opacity="1" transform="matrix(1,0,0,1,504.3819885253906,4.427000045776367)"><path stroke-linecap="round" stroke-linejoin="miter" fill-opacity="0" stroke-miterlimit="10" stroke="rgb(6,2,112)" stroke-opacity="1" stroke-width="4" d=" M-502.3819885253906,2.427000045776367 C-502.3819885253906,2.427000045776367 502.3819885253906,-2.427000045776367 502.3819885253906,-2.427000045776367"/></g></g><g transform="matrix(1,0,0,1,814.5020141601562,1245.46435546875)" opacity="1" style="display: block;"><g opacity="1" transform="matrix(1,0,0,1,189.1490020751953,14.946999549865723)"><path fill="rgb(6,2,112)" fill-opacity="1" d=" M171.50599670410156,14.696000099182129 C171.50599670410156,14.696000099182129 -188.8990020751953,14.696000099182129 -188.8990020751953,14.696000099182129 C-188.8990020751953,14.696000099182129 -188.8990020751953,-14.696000099182129 -188.8990020751953,-14.696000099182129 C-188.8990020751953,-14.696000099182129 188.8990020751953,-14.696000099182129 188.8990020751953,-14.696000099182129 C188.8990020751953,-14.696000099182129 188.8990020751953,-2.696000099182129 188.8990020751953,-2.696000099182129 C188.8990020751953,6.909999847412109 181.11199951171875,14.696000099182129 171.50599670410156,14.696000099182129z"/></g></g><g transform="matrix(1,0,0,1,655.1320190429688,1186.636962890625)" opacity="1" style="display: block;"><g opacity="1" transform="matrix(1,0,0,1,103.39600372314453,104.61000061035156)"><path fill="rgb(86,65,213)" fill-opacity="1" d=" M103.14600372314453,0 C103.14600372314453,57.63600158691406 56.965999603271484,104.36000061035156 0,104.36000061035156 C-56.965999603271484,104.36000061035156 -103.14600372314453,57.63600158691406 -103.14600372314453,0 C-103.14600372314453,-57.63600158691406 -56.965999603271484,-104.36000061035156 0,-104.36000061035156 C56.965999603271484,-104.36000061035156 103.14600372314453,-57.63600158691406 103.14600372314453,0z"/></g><g opacity="1" transform="matrix(1,0,0,1,104.01899719238281,105.62100219726562)"><path fill="rgb(6,2,112)" fill-opacity="1" d=" M67.36499786376953,0 C67.36499786376953,37.641998291015625 37.20500183105469,68.15699768066406 0,68.15699768066406 C-37.20399856567383,68.15699768066406 -67.36499786376953,37.641998291015625 -67.36499786376953,0 C-67.36499786376953,-37.641998291015625 -37.20399856567383,-68.15699768066406 0,-68.15699768066406 C37.20500183105469,-68.15699768066406 67.36499786376953,-37.641998291015625 67.36499786376953,0z"/></g></g><g transform="matrix(1,0,0,1,1232.75,1182.9970703125)" opacity="1" style="display: block;"><g opacity="1" transform="matrix(1,0,0,1,103.39600372314453,104.61000061035156)"><path fill="rgb(86,65,213)" fill-opacity="1" d=" M103.14600372314453,0 C103.14600372314453,57.63600158691406 56.965999603271484,104.36000061035156 0,104.36000061035156 C-56.965999603271484,104.36000061035156 -103.14600372314453,57.63600158691406 -103.14600372314453,0 C-103.14600372314453,-57.63600158691406 -56.965999603271484,-104.36000061035156 0,-104.36000061035156 C56.965999603271484,-104.36000061035156 103.14600372314453,-57.63600158691406 103.14600372314453,0z"/></g><g opacity="1" transform="matrix(1,0,0,1,104.01899719238281,105.62100219726562)"><path fill="rgb(6,2,112)" fill-opacity="1" d=" M67.36499786376953,0 C67.36499786376953,37.641998291015625 37.20399856567383,68.15699768066406 -0.0010000000474974513,68.15699768066406 C-37.20500183105469,68.15699768066406 -67.36499786376953,37.641998291015625 -67.36499786376953,0 C-67.36499786376953,-37.641998291015625 -37.20500183105469,-68.15699768066406 -0.0010000000474974513,-68.15699768066406 C37.20399856567383,-68.15699768066406 67.36499786376953,-37.641998291015625 67.36499786376953,0z"/></g></g><g transform="matrix(1,0,0,1,616.35400390625,852.7252807617188)" opacity="1" style="display: block;"><g opacity="1" transform="matrix(1,0,0,1,67.11299896240234,246.65699768066406)"><path fill="rgb(6,2,112)" fill-opacity="1" d=" M40.2400016784668,33.553001403808594 C40.2400016784668,33.553001403808594 33.553001403808594,40.2400016784668 33.553001403808594,40.2400016784668 C33.553001403808594,40.2400016784668 -40.2400016784668,-33.55400085449219 -40.2400016784668,-33.55400085449219 C-40.2400016784668,-33.55400085449219 -33.553001403808594,-40.2400016784668 -33.553001403808594,-40.2400016784668 C-33.553001403808594,-40.2400016784668 40.2400016784668,33.553001403808594 40.2400016784668,33.553001403808594z"/></g><g opacity="1" transform="matrix(1,0,0,1,352.5379943847656,205.3040008544922)"><path fill="rgb(249,209,10)" fill-opacity="1" d=" M177.54600524902344,-139.55099487304688 C177.54600524902344,-139.55099487304688 210.71400451660156,-98.6969985961914 234.98399353027344,-33.16899871826172 C259.2539978027344,32.35900115966797 239.83799743652344,140.76400756835938 145.18600463867188,170.6959991455078 C145.18600463867188,170.6959991455078 54.58000183105469,203.05599975585938 25.45599937438965,140.76400756835938 C25.45599937438965,140.76400756835938 11.904999732971191,112.4489974975586 24.64699935913086,72.80799865722656 C36.64500045776367,35.48099899291992 31.523000717163086,8.89799976348877 31.523000717163086,8.89799976348877 C31.523000717163086,8.89799976348877 -201.8699951171875,8.08899974822998 -201.8699951171875,8.08899974822998 C-201.8699951171875,8.08899974822998 -326.2359924316406,53.775001525878906 -350.1159973144531,180.84800720214844 C-352.2879943847656,192.40699768066406 -343.3110046386719,203.06900024414062 -331.54998779296875,203.0850067138672 C-331.54998779296875,203.0850067138672 238.22000122070312,203.86500549316406 238.22000122070312,203.86500549316406 C238.22000122070312,203.86500549316406 264.9169921875,115.68499755859375 352.2879943847656,92.2239990234375 C352.2879943847656,92.2239990234375 346.625,0.4050000011920929 240.64700317382812,-125.7969970703125 C240.64700317382812,-125.7969970703125 268.9620056152344,-125.39299774169922 268.9620056152344,-125.39299774169922 C268.9620056152344,-125.39299774169922 281.9049987792969,-180.4040069580078 246.30999755859375,-203.86500549316406 C246.30999755859375,-203.86500549316406 194.6230010986328,-199.85499572753906 177.54600524902344,-139.55099487304688z"/></g><g opacity="1" transform="matrix(1,0,0,1,322.9830017089844,252.22500610351562)"><path fill="#1371be" fill-opacity="1" d=" M-317.7969970703125,147.1009979248047 C-317.7969970703125,147.1009979248047 -282.8089904785156,72.10900115966797 -211.17799377441406,30.542999267578125 C-135.1300048828125,-13.585000038146973 -37.79199981689453,2.4600000381469727 17.482999801635742,70.83699798583984 C32.36000061035156,89.24099731445312 48.472999572753906,108.80899810791016 56.36000061035156,138.33700561523438 C56.36000061035156,138.33700561523438 218.42799377441406,139.9550018310547 218.42799377441406,139.9550018310547 C218.42799377441406,139.9550018310547 273.4389953613281,104.35900115966797 297.7090148925781,30.740999221801758 C321.9779968261719,-42.87699890136719 283.95599365234375,-113.25900268554688 257.2590026855469,-151.281005859375 C257.2590026855469,-151.281005859375 237.843994140625,-139.14599609375 237.843994140625,-139.14599609375 C237.843994140625,-139.14599609375 276.67401123046875,-72.80899810791016 274.24700927734375,-25.88800048828125 C271.82000732421875,21.034000396728516 258.0669860839844,107.59500122070312 157.7530059814453,127.81999969482422 C157.7530059814453,127.81999969482422 75.23699951171875,151.281005859375 52.584999084472656,87.37100219726562 C52.584999084472656,87.37100219726562 43.48400115966797,56.426998138427734 54.202999114990234,25.886999130249023 C54.202999114990234,25.886999130249023 58.04600143432617,13.753000259399414 59.46099853515625,5.663000106811523 C60.87699890136719,-2.427000045776367 64.11299896240234,-22.450000762939453 61.07899856567383,-38.02299880981445 C61.07899856567383,-38.02299880981445 -172.31399536132812,-38.832000732421875 -172.31399536132812,-38.832000732421875 C-172.31399536132812,-38.832000732421875 -220.58299255371094,-21.034000396728516 -262.6510009765625,22.92099952697754 C-262.6510009765625,22.92099952697754 -298.9219970703125,55.01100158691406 -317.1239929199219,118.51699829101562 C-317.1239929199219,118.51699829101562 -321.97698974609375,135.23599243164062 -320.76300048828125,140.08999633789062 C-320.76300048828125,140.08999633789062 -320.0889892578125,144.4040069580078 -317.7969970703125,147.1009979248047z"/></g><g opacity="1" transform="matrix(1,0,0,1,76.58499908447266,125.35399627685547)"><path fill="rgb(249,209,10)" fill-opacity="1" d=" M62.91899871826172,82.47699737548828 C62.91899871826172,82.47699737548828 -62.91899871826172,82.47699737548828 -62.91899871826172,82.47699737548828 C-62.91899871826172,82.47699737548828 -62.91899871826172,-82.47699737548828 -62.91899871826172,-82.47699737548828 C-62.91899871826172,-82.47699737548828 62.91899871826172,-82.47699737548828 62.91899871826172,-82.47699737548828 C62.91899871826172,-82.47699737548828 62.91899871826172,82.47699737548828 62.91899871826172,82.47699737548828z"/></g><g opacity="1" transform="matrix(1,0,0,1,100.64600372314453,46.222999572753906)"><path fill="#1371be" fill-opacity="1" d=" M92.89900207519531,16.4689998626709 C92.89900207519531,16.4689998626709 -92.89900207519531,16.4689998626709 -92.89900207519531,16.4689998626709 C-92.89900207519531,16.4689998626709 -92.89900207519531,-16.4689998626709 -92.89900207519531,-16.4689998626709 C-92.89900207519531,-16.4689998626709 92.89900207519531,-16.4689998626709 92.89900207519531,-16.4689998626709 C92.89900207519531,-16.4689998626709 92.89900207519531,16.4689998626709 92.89900207519531,16.4689998626709z"/></g><g opacity="1" transform="matrix(1,0,0,1,161.3780059814453,118.80799865722656)"><path fill="#1371be" fill-opacity="1" d=" M32.16699981689453,89.02300262451172 C32.16699981689453,89.02300262451172 -32.16699981689453,89.02300262451172 -32.16699981689453,89.02300262451172 C-32.16699981689453,89.02300262451172 -32.16699981689453,-89.02300262451172 -32.16699981689453,-89.02300262451172 C-32.16699981689453,-89.02300262451172 32.16699981689453,-89.02300262451172 32.16699981689453,-89.02300262451172 C32.16699981689453,-89.02300262451172 32.16699981689453,89.02300262451172 32.16699981689453,89.02300262451172z"/></g><g opacity="1" transform="matrix(1,0,0,1,52.909000396728516,114.67400360107422)"><path fill="#1371be" fill-opacity="1" d=" M23.547000885009766,25.990999221801758 C23.547000885009766,25.990999221801758 -23.547000885009766,25.990999221801758 -23.547000885009766,25.990999221801758 C-23.547000885009766,25.990999221801758 -23.547000885009766,-25.990999221801758 -23.547000885009766,-25.990999221801758 C-23.547000885009766,-25.990999221801758 23.547000885009766,-25.990999221801758 23.547000885009766,-25.990999221801758 C23.547000885009766,-25.990999221801758 23.547000885009766,25.990999221801758 23.547000885009766,25.990999221801758z"/></g><g opacity="1" transform="matrix(1,0,0,1,52.23400115966797,159.5800018310547)"><path fill="rgb(255,255,255)" fill-opacity="1" d=" M24.93000030517578,1.4149999618530273 C24.93000030517578,1.4149999618530273 -24.93000030517578,1.4149999618530273 -24.93000030517578,1.4149999618530273 C-24.93000030517578,1.4149999618530273 -24.93000030517578,-1.4149999618530273 -24.93000030517578,-1.4149999618530273 C-24.93000030517578,-1.4149999618530273 24.93000030517578,-1.4149999618530273 24.93000030517578,-1.4149999618530273 C24.93000030517578,-1.4149999618530273 24.93000030517578,1.4149999618530273 24.93000030517578,1.4149999618530273z"/></g><g opacity="1" transform="matrix(1,0,0,1,52.23400115966797,164.79100036621094)"><path fill="rgb(255,255,255)" fill-opacity="1" d=" M24.93000030517578,1.4149999618530273 C24.93000030517578,1.4149999618530273 -24.93000030517578,1.4149999618530273 -24.93000030517578,1.4149999618530273 C-24.93000030517578,1.4149999618530273 -24.93000030517578,-1.4149999618530273 -24.93000030517578,-1.4149999618530273 C-24.93000030517578,-1.4149999618530273 24.93000030517578,-1.4149999618530273 24.93000030517578,-1.4149999618530273 C24.93000030517578,-1.4149999618530273 24.93000030517578,1.4149999618530273 24.93000030517578,1.4149999618530273z"/></g><g opacity="1" transform="matrix(1,0,0,1,194.75799560546875,209.9550018310547)"><path fill="rgb(6,2,112)" fill-opacity="1" d=" M189.70799255371094,4.247000217437744 C189.70799255371094,4.247000217437744 -189.70799255371094,4.247000217437744 -189.70799255371094,4.247000217437744 C-189.70799255371094,4.247000217437744 -189.70799255371094,-4.247000217437744 -189.70799255371094,-4.247000217437744 C-189.70799255371094,-4.247000217437744 189.70799255371094,-4.247000217437744 189.70799255371094,-4.247000217437744 C189.70799255371094,-4.247000217437744 189.70799255371094,4.247000217437744 189.70799255371094,4.247000217437744z"/></g><g opacity="1" transform="matrix(1,0,0,1,291.8370056152344,188.9219970703125)"><path fill="rgb(86,65,213)" fill-opacity="1" d=" M92.62899780273438,16.785999298095703 C92.62899780273438,16.785999298095703 -92.62899780273438,16.785999298095703 -92.62899780273438,16.785999298095703 C-92.62899780273438,-1.75600004196167 -77.5979995727539,-16.785999298095703 -59.055999755859375,-16.785999298095703 C-59.055999755859375,-16.785999298095703 59.055999755859375,-16.785999298095703 59.055999755859375,-16.785999298095703 C77.5979995727539,-16.785999298095703 92.62899780273438,-1.75600004196167 92.62899780273438,16.785999298095703z"/></g><g opacity="1" transform="matrix(1,0,0,1,547.072998046875,67.58799743652344)"><path fill="rgb(6,2,112)" fill-opacity="1" d=" M0,-19.76799964904785 C0,-19.76799964904785 -37.75299835205078,-3.5869998931884766 -42.06800079345703,5.041999816894531 C-46.38199996948242,13.670999526977539 -35.39799880981445,19.76799964904785 -28.583999633789062,16.503000259399414 C-22.11199951171875,13.402000427246094 -3.6410000324249268,2.2109999656677246 -3.6410000324249268,2.2109999656677246 C-3.6410000324249268,2.2109999656677246 -0.20200000703334808,7.468999862670898 4.854000091552734,9.895999908447266 C24.44099998474121,19.29800033569336 41.79800033569336,13.670999526977539 41.79800033569336,9.895999908447266 C41.79800033569336,6.120999813079834 46.38199996948242,-19.76799964904785 0,-19.76799964904785z"/></g><g opacity="1" transform="matrix(1,0,0,1,617.77099609375,40.28300094604492)"><path fill="rgb(6,2,112)" fill-opacity="1" d=" M-22.840999603271484,-38.26300048828125 C-22.840999603271484,-38.26300048828125 -17.128000259399414,-39.32400131225586 -17.128000259399414,-39.32400131225586 C-17.128000259399414,-39.32400131225586 -13.008000373840332,-40.03200149536133 -13.008000373840332,-40.03200149536133 C-13.008000373840332,-40.03200149536133 22.840999603271484,-15.383999824523926 8.682999610900879,40.03200149536133 C8.682999610900879,40.03200149536133 0.08799999952316284,39.62699890136719 0.08799999952316284,39.62699890136719 C0.08799999952316284,39.62699890136719 11.270999908447266,-11.970999717712402 -22.840999603271484,-38.26300048828125z"/></g><g opacity="1" transform="matrix(1,0,0,1,711.0280151367188,362.3919982910156)"><path fill="rgb(6,2,112)" fill-opacity="1" d=" M-116.427001953125,61.3380012512207 C-121.3479995727539,55.67499923706055 -120.00499725341797,45.04499816894531 -116.71900177001953,36.683998107910156 C-107.00299835205078,11.956999778747559 -77.31400299072266,-59.08300018310547 -6.4720001220703125,-65.6729965209961 C39.90999984741211,-69.98799896240234 72.96199798583984,-54.777000427246094 98.15699768066406,-21.988000869750977 C103.54000091552734,-14.982999801635742 121.3479995727539,10.373000144958496 108.67400360107422,19.676000595092773 C96.19300079345703,28.836999893188477 98.96600341796875,16.575000762939453 60.1349983215332,-6.616000175476074 C13.670999526977539,-34.3650016784668 -53.7760009765625,-25.027999877929688 -81.03399658203125,52.237998962402344 C-83.93000030517578,60.44599914550781 -90.33699798583984,66.3949966430664 -96.60700225830078,68.21499633789062 C-102.71099853515625,69.98799896240234 -110.4990005493164,68.16000366210938 -116.427001953125,61.3380012512207z"/></g><g opacity="1" transform="matrix(1,0,0,1,194.35400390625,327.7309875488281)"><path fill="#1371be" fill-opacity="1" d=" M47.46099853515625,2.9660000801086426 C47.46099853515625,2.9660000801086426 -47.46099853515625,2.9660000801086426 -47.46099853515625,2.9660000801086426 C-47.46099853515625,2.9660000801086426 -47.46099853515625,-2.9660000801086426 -47.46099853515625,-2.9660000801086426 C-47.46099853515625,-2.9660000801086426 47.46099853515625,-2.9660000801086426 47.46099853515625,-2.9660000801086426 C47.46099853515625,-2.9660000801086426 47.46099853515625,2.9660000801086426 47.46099853515625,2.9660000801086426z"/></g><g opacity="1" transform="matrix(1,0,0,1,197.99400329589844,340.135009765625)"><path fill="#1371be" fill-opacity="1" d=" M69.3030014038086,2.9660000801086426 C69.3030014038086,2.9660000801086426 -69.3030014038086,2.9660000801086426 -69.3030014038086,2.9660000801086426 C-69.3030014038086,2.9660000801086426 -69.3030014038086,-2.9660000801086426 -69.3030014038086,-2.9660000801086426 C-69.3030014038086,-2.9660000801086426 69.3030014038086,-2.9660000801086426 69.3030014038086,-2.9660000801086426 C69.3030014038086,-2.9660000801086426 69.3030014038086,2.9660000801086426 69.3030014038086,2.9660000801086426z"/></g></g><g transform="matrix(1,0,0,1,928.22998046875,596.415283203125)" opacity="1" style="display: block;"><g opacity="1" transform="matrix(1,0,0,1,44.888999938964844,57.57500076293945)"><path fill="rgb(6,2,112)" fill-opacity="1" d=" M44.638999938964844,-23.275999069213867 C44.638999938964844,-23.275999069213867 32.066001892089844,-48.54399871826172 8.369999885559082,-52.94599914550781 C-15.208000183105469,-57.32500076293945 -32.12200164794922,-43.694000244140625 -40.018001556396484,-21.049999237060547 C-44.638999938964844,-7.796000003814697 -44.34299850463867,15.031999588012695 -33.696998596191406,34.30699920654297 C-33.696998596191406,34.30699920654297 39.31700134277344,57.32500076293945 44.638999938964844,-23.275999069213867z"/></g></g><g transform="matrix(1,0,0,1,919.115966796875,661.936279296875)" opacity="1" style="display: block;"><g opacity="1" transform="matrix(1,0,0,1,29.66699981689453,41.167999267578125)"><path fill="rgb(245,97,120)" fill-opacity="1" d=" M-29.41699981689453,15.984999656677246 C-5.019000053405762,40.917999267578125 14.899999618530273,33.41299819946289 14.899999618530273,33.41299819946289 C15.461000442504883,29.384000778198242 16.511999130249023,25.1560001373291 17.82900047302246,21.03499984741211 C18.339000701904297,19.389999389648438 18.888999938964844,17.77199935913086 19.482999801635742,16.197999954223633 C23.820999145507812,4.288000106811523 29.41699981689453,-5.650000095367432 29.41699981689453,-5.650000095367432 C29.41699981689453,-5.650000095367432 3.3310000896453857,-36.709999084472656 3.3310000896453857,-36.709999084472656 C3.3310000896453857,-36.709999084472656 -0.20399999618530273,-40.917999267578125 -0.20399999618530273,-40.917999267578125 C-4.322000026702881,-19.274999618530273 -21.551000595092773,5.418000221252441 -27.44099998474121,13.371999740600586 C-28.68199920654297,15.052000045776367 -29.41699981689453,15.984999656677246 -29.41699981689453,15.984999656677246z"/></g><g opacity="1" transform="matrix(1,0,0,1,46.04100036621094,30.91200065612793)"><path fill="rgb(6,2,112)" fill-opacity="1" d=" M-3.5920000076293945,11.444999694824219 C2.618000030517578,20.606000900268555 2.499000072479248,23.284000396728516 3.1089999675750732,26.45400047302246 C7.446000099182129,14.543999671936035 13.043999671936035,4.605999946594238 13.043999671936035,4.605999946594238 C13.043999671936035,4.605999946594238 -13.043999671936035,-26.45400047302246 -13.043999671936035,-26.45400047302246 C-13.043999671936035,-26.45400047302246 -12.678999900817871,-1.9800000190734863 -3.5920000076293945,11.444999694824219z"/></g></g><g transform="matrix(1,0,0,1,939.7490234375,611.67529296875)" opacity="1" style="display: block;"><g opacity="1" transform="matrix(1,0,0,1,48.305999755859375,51.29600143432617)"><path fill="rgb(245,97,120)" fill-opacity="1" d=" M-35.39699935913086,14.86400032043457 C-35.39699935913086,14.86400032043457 -32.917999267578125,30.326000213623047 -25.283000946044922,37.2599983215332 C-17.648000717163086,44.19300079345703 5.640999794006348,51.04600143432617 8.265999794006348,49.176998138427734 C10.890999794006348,47.30799865722656 12.800999641418457,39.948001861572266 14.204999923706055,38.82500076293945 C15.609999656677246,37.70199966430664 16.790000915527344,38.189998626708984 17.687999725341797,36.652000427246094 C18.586000442504883,35.1150016784668 17.180999755859375,33.02399826049805 17.180999755859375,33.02399826049805 C18.450000762939453,32.779998779296875 22.503999710083008,32.53900146484375 21.736000061035156,30.447999954223633 C20.94499969482422,28.29199981689453 21.094999313354492,23.902000427246094 21.094999313354492,23.902000427246094 C29.24799919128418,24.457000732421875 31.740999221801758,17.871000289916992 28.215999603271484,16.042999267578125 C24.69099998474121,14.215999603271484 20.986000061035156,6.242000102996826 28.19099998474121,-2.3259999752044678 C35.39699935913086,-10.895000457763672 31.927000045776367,-24.593000411987305 31.927000045776367,-24.593000411987305 C31.927000045776367,-24.593000411987305 28.219999313354492,-44.15299987792969 12.333999633789062,-47.599998474121094 C-3.552000045776367,-51.04600143432617 -27.652999877929688,-48.53200149536133 -29.81399917602539,-26.808000564575195 C-31.975000381469727,-5.084000110626221 -28.37700080871582,1.1299999952316284 -28.37700080871582,1.1299999952316284"/></g><g opacity="1" transform="matrix(1,0,0,1,61.51599884033203,53.6349983215332)"><path fill="rgb(6,2,112)" fill-opacity="1" d=" M-3.380000114440918,-1.878999948501587 C-4.327000141143799,-0.17499999701976776 -3.5820000171661377,2.0480000972747803 -1.715000033378601,3.0859999656677246 C0.15199999511241913,4.123000144958496 2.434999942779541,3.5820000171661377 3.38100004196167,1.878000020980835 C4.328000068664551,0.17499999701976776 3.5820000171661377,-2.0480000972747803 1.715000033378601,-3.0850000381469727 C-0.15199999511241913,-4.123000144958496 -2.433000087738037,-3.5829999446868896 -3.380000114440918,-1.878999948501587z"/></g><g opacity="1" transform="matrix(1,0,0,1,61.595001220703125,52.01900100708008)"><path fill="rgb(234,234,234)" fill-opacity="1" d=" M-0.6129999756813049,0.11800000071525574 C-0.5479999780654907,0.4569999873638153 -0.22100000083446503,0.6790000200271606 0.11699999868869781,0.6129999756813049 C0.4560000002384186,0.5479999780654907 0.6779999732971191,0.22100000083446503 0.6129999756813049,-0.11800000071525574 C0.5479999780654907,-0.4569999873638153 0.22100000083446503,-0.6790000200271606 -0.11800000071525574,-0.6129999756813049 C-0.4560000002384186,-0.5479999780654907 -0.6779999732971191,-0.22100000083446503 -0.6129999756813049,0.11800000071525574z"/></g><g opacity="1" transform="matrix(1,0,0,1,62.07500076293945,44.49300003051758)"><path fill="rgb(6,2,112)" fill-opacity="1" d=" M7.5370001792907715,3.5220000743865967 C9.432999610900879,2.943000078201294 9.795999526977539,1.1679999828338623 8.258999824523926,0.3779999911785126 C5.525000095367432,-1.0290000438690186 -0.5630000233650208,-3.927000045776367 -3.631999969482422,-3.562999963760376 C-7.664999961853027,-3.0850000381469727 -9.795999526977539,0.023000000044703484 -8.420000076293945,0.12999999523162842 C-7.044000148773193,0.2370000034570694 -3.8489999771118164,-0.6060000061988831 -1.5759999752044678,0.35899999737739563 C0.6970000267028809,1.3250000476837158 5.435999870300293,3.927000045776367 6.882999897003174,3.677999973297119 C7.0960001945495605,3.6419999599456787 7.316999912261963,3.5889999866485596 7.5370001792907715,3.5220000743865967z"/></g><g opacity="1" transform="matrix(1,0,0,1,59.49399948120117,82.2030029296875)"><path stroke-linecap="round" stroke-linejoin="miter" fill-opacity="0" stroke-miterlimit="10" stroke="rgb(21,45,77)" stroke-opacity="1" stroke-width="1" d=" M5.578000068664551,2.0899999141693115 C5.578000068664551,2.0899999141693115 -0.4269999861717224,1.7680000066757202 -5.578000068664551,-2.0899999141693115"/></g><g opacity="1" transform="matrix(1,0,0,1,10.08899974822998,52.724998474121094)"><path fill="rgb(245,97,120)" fill-opacity="1" d=" M9.84000015258789,-0.30000001192092896 C9.84000015258789,-0.30000001192092896 7.201000213623047,-7.60699987411499 1.4989999532699585,-10.520999908447266 C-4.202000141143799,-13.4350004196167 -9.84000015258789,-6.386000156402588 -7.627999782562256,2.443000078201294 C-5.415999889373779,11.272000312805176 2.819000005722046,13.434000015258789 2.819000005722046,13.434000015258789"/></g></g><g transform="matrix(1,0,0,1,930.89501953125,591.38330078125)" opacity="1" style="display: block;"><g opacity="1" transform="matrix(1,0,0,1,98.88500213623047,65.13700103759766)"><path fill="#1371be" fill-opacity="1" d=" M-13.229999542236328,-6.855000019073486 C-13.229999542236328,-6.855000019073486 1.3830000162124634,6.855000019073486 8.192999839782715,6.835000038146973 C8.192999839782715,6.835000038146973 13.229999542236328,6.751999855041504 12.197999954223633,3.111999988555908 C11.166000366210938,-0.527999997138977 1.0759999752044678,-4.855999946594238 -13.229999542236328,-6.855000019073486z"/></g><g opacity="1" transform="matrix(1,0,0,1,70.3290023803711,53.625999450683594)"><path fill="#1371be" fill-opacity="1" d=" M-43.803001403808594,-3.6080000400543213 C-43.803001403808594,-3.6080000400543213 -35.9379997253418,9.114999771118164 -17.613000869750977,10.748000144958496 C1.593999981880188,12.460000038146973 3.4809999465942383,5.918000221252441 23.642000198364258,7.763000011444092 C43.803001403808594,9.607999801635742 43.55699920654297,18.325000762939453 36.74800109863281,18.34600067138672 C36.74800109863281,18.34600067138672 42.470001220703125,19.145000457763672 42.869998931884766,16.284000396728516 C43.27000045776367,13.42300033569336 38.08100128173828,8.809000015258789 19.347000122070312,0.8149999976158142 C19.347000122070312,0.8149999976158142 5.039999961853027,-19.145000457763672 -43.803001403808594,-3.6080000400543213z"/></g><g opacity="1" transform="matrix(1,0,0,1,50.555999755859375,3.3010001182556152)"><path fill="#1371be" fill-opacity="1" d=" M-5.10099983215332,1.718000054359436 C-5.10099983215332,1.718000054359436 -4.434999942779541,-3.0510001182556152 0.33399999141693115,-2.384000062942505 C5.1020002365112305,-1.718000054359436 4.435999870300293,3.0510001182556152 4.435999870300293,3.0510001182556152 C4.435999870300293,3.0510001182556152 -5.10099983215332,1.718000054359436 -5.10099983215332,1.718000054359436z"/></g><g opacity="1" transform="matrix(1,0,0,1,46.04899978637695,30.198999404907227)"><path fill="#1371be" fill-opacity="1" d=" M-45.35900115966797,18.086000442504883 C-45.61000061035156,18.065000534057617 -45.79999923706055,17.854999542236328 -45.79499816894531,17.60300064086914 C-45.56700134277344,6.517000198364258 -39.9109992980957,-6.01800012588501 -37.861000061035156,-8.998000144958496 C-35.41999816894531,-12.545999526977539 -31.093000411987305,-22.636999130249023 -10.131999969482422,-26.513999938964844 C-10.131999969482422,-26.513999938964844 9.741999626159668,-29.56999969482422 27.749000549316406,-19.274999618530273 C45.75699996948242,-8.979000091552734 45.79999923706055,4.638999938964844 43.28799819946289,29.569000244140625 C43.28799819946289,29.569000244140625 -12.49899959564209,20.82200050354004 -45.35900115966797,18.086000442504883z"/></g><g opacity="1" transform="matrix(1,0,0,1,60.95399856567383,31.860000610351562)"><path fill="#1371be" fill-opacity="1" d=" M-30.746999740600586,19.643999099731445 C-30.746999740600586,19.643999099731445 -30.829999923706055,-7.5929999351501465 -26.768999099731445,-15.776000022888184 C-22.70800018310547,-23.959999084472656 -16.31999969482422,-27.929000854492188 -5.696000099182129,-27.416000366210938 C-0.4560000002384186,-27.163000106811523 4.765999794006348,-25.323999404907227 9.48900032043457,-23.145999908447266 C14.64799976348877,-20.76799964904785 19.81999969482422,-16.683000564575195 23.38800048828125,-12.211000442504883 C30.829999923706055,-2.885999917984009 30.22800064086914,6.730999946594238 29.576000213623047,16.569000244140625 C29.506999969482422,17.601999282836914 28.53499984741211,27.929000854492188 28.382999420166016,27.908000946044922 C28.381999969482422,27.908000946044922 -30.746999740600586,19.643999099731445 -30.746999740600586,19.643999099731445z"/></g><g opacity="1" transform="matrix(1,0,0,1,68.8010025024414,55.46699905395508)"><path fill="#1371be" fill-opacity="1" d=" M-38.52199935913086,-3.9670000076293945 C-29.85099983215332,-6.113999843597412 -20.49799919128418,-7.045000076293945 -11.595999717712402,-7.4679999351501465 C-7.170000076293945,-7.677999973297119 -2.5899999141693115,-8.196000099182129 1.7070000171661377,-7.080999851226807 C26.104000091552734,-0.7549999952316284 38.52199935913086,7.7870001792907715 38.52199935913086,7.7870001792907715 C36.236000061035156,6.436999797821045 33.31999969482422,5.880000114440918 30.7549991607666,5.4079999923706055 C22.400999069213867,3.868000030517578 13.779999732971191,3.3570001125335693 5.410999774932861,5.078999996185303 C-3.2219998836517334,6.855999946594238 -11.815999984741211,8.196000099182129 -20.586000442504883,6.333000183105469 C-26.06599998474121,5.168000221252441 -31.679000854492188,2.986999988555908 -35.68899917602539,-1.059999942779541 C-36.64099884033203,-2.0220000743865967 -37.56999969482422,-3.010999917984009 -38.52199935913086,-3.9670000076293945z"/></g></g><g transform="matrix(1,0,0,1,837.4219970703125,903.63427734375)" opacity="1" style="display: block;"><g opacity="1" transform="matrix(1,0,0,1,130.15499877929688,67.4520034790039)"><path fill="rgb(6,2,112)" fill-opacity="1" d=" M-128.6219940185547,2.0769999027252197 C-129.90499877929688,10.300999641418457 -123.08399963378906,31.211999893188477 -117.83599853515625,37.67300033569336 C-107.4260025024414,50.487998962402344 -85.41699981689453,67.2020034790039 -43.678001403808594,65.98799896240234 C19.19099998474121,64.15899658203125 93.77200317382812,65.08899688720703 109.11900329589844,47.290000915527344 C129.90499877929688,23.18400001525879 116.19200134277344,0.703000009059906 100.45700073242188,-5.876999855041504 C95.45099639892578,-7.96999979019165 -47.452999114990234,-41.608001708984375 -47.452999114990234,-41.608001708984375 C-47.452999114990234,-41.608001708984375 -117.81300354003906,-67.2020034790039 -128.6219940185547,2.0769999027252197z"/></g></g><g transform="matrix(1,0,0,1,1011.1600341796875,961.1942749023438)" opacity="1" style="display: block;"><g opacity="1" transform="matrix(1,0,0,1,45.000999450683594,134.60400390625)"><path fill="rgb(6,2,112)" fill-opacity="1" d=" M32.231998443603516,-109.69100189208984 C25.375999450683594,-123.57599639892578 14.279000282287598,-134.35400390625 -2.861999988555908,-130.79400634765625 C-22.20599937438965,-126.7770004272461 -44.750999450683594,-109.41400146484375 -26.55500030517578,-25.555999755859375 C-1.7949999570846558,88.5459976196289 12.277000427246094,130.3090057373047 12.277000427246094,130.3090057373047 C12.277000427246094,130.3090057373047 27.243000030517578,134.35400390625 41.400001525878906,123.83699798583984 C41.400001525878906,123.83699798583984 41.400001525878906,-21.7810001373291 41.400001525878906,-21.7810001373291 C41.400001525878906,-27.055999755859375 44.750999450683594,-84.33799743652344 32.231998443603516,-109.69100189208984z"/></g></g><g transform="matrix(1,0,0,1,1059.0989990234375,1187.30419921875)" opacity="1" style="display: block;"><g opacity="1" transform="matrix(1,0,0,1,46.80400085449219,35.652000427246094)"><path fill="#1371be" fill-opacity="1" d=" M46.55400085449219,23.944000244140625 C46.55400085449219,23.944000244140625 43.345001220703125,-6.949999809265137 -0.7739999890327454,-15.244000434875488 C-0.7739999890327454,-15.244000434875488 0.43700000643730164,-35.402000427246094 -17.07900047302246,-32.47600173950195 C-34.59400177001953,-29.551000595092773 -31.406999588012695,-11.833000183105469 -31.406999588012695,-11.833000183105469 C-31.406999588012695,-11.833000183105469 -41.69300079345703,-15.00100040435791 -44.124000549316406,-13.751999855041504 C-46.55400085449219,-12.501999855041504 -46.249000549316406,-14.423999786376953 -44.96200180053711,26.677000045776367 C-44.96200180053711,26.677000045776367 -43.856998443603516,35.402000427246094 -43.856998443603516,35.402000427246094 C-43.856998443603516,35.402000427246094 46.55400085449219,23.944000244140625 46.55400085449219,23.944000244140625z"/></g><g opacity="1" transform="matrix(1,0,0,1,47.571998596191406,60.2400016784668)"><path fill="rgb(86,65,213)" fill-opacity="1" d=" M45.7859992980957,-0.6439999938011169 C45.7859992980957,-0.6439999938011169 -44.625,10.814000129699707 -44.625,10.814000129699707 C-44.625,10.814000129699707 -45.731998443603516,2.0889999866485596 -45.731998443603516,2.0889999866485596 C-45.75,1.496999979019165 -45.768001556396484,0.9449999928474426 -45.7859992980957,0.3700000047683716 C-45.7859992980957,0.3700000047683716 42.4640007019043,-10.814000129699707 42.4640007019043,-10.814000129699707 C45.33599853515625,-4.9679999351501465 45.7859992980957,-0.6439999938011169 45.7859992980957,-0.6439999938011169z"/></g><g opacity="1" transform="matrix(1,0,0,1,51.98400115966797,31.82900047302246)"><path fill="rgb(255,254,255)" fill-opacity="1" d=" M12.460000038146973,-5.7210001945495605 C3.1040000915527344,-6.249000072479248 -5.752999782562256,-1.531999945640564 -10.657999992370605,6.414000034332275 C-11.244000434875488,7.36299991607666 -12.607999801635742,6.294000148773193 -12.027000427246094,5.353000164031982 C-7.489999771118164,-1.9950000047683716 0.2759999930858612,-6.613999843597412 8.72599983215332,-7.36299991607666 C10.081000328063965,-6.8480000495910645 11.362000465393066,-6.302999973297119 12.607999801635742,-5.742000102996826 C12.557000160217285,-5.736999988555908 12.515000343322754,-5.7179999351501465 12.460000038146973,-5.7210001945495605z"/></g><g opacity="1" transform="matrix(1,0,0,1,43.1349983215332,27.871000289916992)"><path fill="rgb(255,254,255)" fill-opacity="1" d=" M-9.1850004196167,5.552000045776367 C-9.826000213623047,6.466000080108643 -11.192000389099121,5.4019999504089355 -10.553999900817871,4.491000175476074 C-6.260000228881836,-1.6330000162124634 0.47600001096725464,-4.716000080108643 7.519999980926514,-6.466000080108643 C8.779999732971191,-6.164000034332275 10.005000114440918,-5.84499979019165 11.192000389099121,-5.50600004196167 C3.390000104904175,-4.006999969482422 -4.458000183105469,-1.1920000314712524 -9.1850004196167,5.552000045776367z"/></g><g opacity="1" transform="matrix(1,0,0,1,35.266998291015625,24.899999618530273)"><path fill="rgb(255,254,255)" fill-opacity="1" d=" M10.682000160217285,-7.544000148773193 C10.73799991607666,-6.880000114440918 10.765000343322754,-6.290999889373779 10.774999618530273,-5.815000057220459 C2.7339999675750732,-4.994999885559082 -4.636000156402588,-0.36500000953674316 -8.836000442504883,6.590000152587891 C-9.411999702453613,7.544000148773193 -10.774999618530273,6.473999977111816 -10.204999923706055,5.5289998054504395 C-5.7769999504089355,-1.8029999732971191 2.178999900817871,-6.736000061035156 10.682000160217285,-7.544000148773193z"/></g></g><g transform="matrix(1,0,0,1,814.58203125,708.0672607421875)" opacity="1" style="display: block;"><g opacity="1" transform="matrix(1,0,0,1,74.71800231933594,163.3090057373047)"><path fill="rgb(86,65,213)" fill-opacity="1" d=" M23.04400062561035,-153.7779998779297 C21.316999435424805,-154.64100646972656 10.980999946594238,-144.92100524902344 9.531999588012695,-143.4770050048828 C-14.83899974822998,-119.17400360107422 -28.917999267578125,-82.57599639892578 -40.125999450683594,-50.749000549316406 C-49.8390007019043,-23.167999267578125 -57.77899932861328,3.3010001182556152 -64.73200225830078,31.70400047302246 C-71.23500061035156,58.26599884033203 -74.46800231933594,85.97200012207031 -69.04900360107422,113.29100036621094 C-69.04900360107422,113.29100036621094 -66.88999938964844,124.08399963378906 -55.66699981689453,129.26400756835938 C-55.66699981689453,129.26400756835938 -50.6150016784668,154.63999938964844 -31.63599967956543,148.9770050048828 C16.02899932861328,134.7550048828125 50.09600067138672,88.65399932861328 62.441001892089844,69.76499938964844 C64.95099639892578,65.92500305175781 66.33699798583984,61.191001892089844 66.68900299072266,56.61800003051758 C66.95800018310547,53.11199951171875 65.33999633789062,46.37200164794922 58.395999908447266,43.06800079345703 C56.11399841308594,41.983001708984375 48.82500076293945,16.891000747680664 53.8380012512207,-16.50200080871582 C58.75699996948242,-49.275001525878906 74.46800231933594,-89.65499877929688 74.18099975585938,-118.29000091552734 C74.13400268554688,-122.90299987792969 34.571998596191406,-148.01400756835938 23.04400062561035,-153.7779998779297z"/></g><g opacity="1" transform="matrix(1,0,0,1,121.09100341796875,24.163000106811523)"><path fill="rgb(86,65,213)" fill-opacity="1" d=" M-28.652999877929688,-11.538999557495117 C-28.652999877929688,-11.538999557495117 -19.444000244140625,-19.23699951171875 -8.722999572753906,-23.913999557495117 C-8.722999572753906,-23.913999557495117 7.7170000076293945,-13.454000473022461 28.652999877929688,0.5759999752044678 C28.652999877929688,0.5759999752044678 28.545000076293945,5.136000156402588 27.68199920654297,23.913999557495117 C27.68199920654297,23.913999557495117 10.414999961853027,4.864999771118164 -28.652999877929688,-11.538999557495117z"/></g><g opacity="1" transform="matrix(1,0,0,1,106.37300109863281,17.643999099731445)"><path fill="rgb(6,2,112)" fill-opacity="1" d=" M-14.015999794006348,-5.046000003814697 C-14.015999794006348,-5.046000003814697 -8.8100004196167,-8.904000282287598 -8.8100004196167,-8.904000282287598 C-8.8100004196167,-8.904000282287598 5.381999969482422,0.8100000023841858 14.015999794006348,8.904000282287598 C14.015999794006348,8.904000282287598 -4.572999954223633,-1.4579999446868896 -14.015999794006348,-5.046000003814697z"/></g></g><g transform="matrix(1,0,0,1,1069.5439453125,888.0313110351562)" opacity="1" style="display: block;"><g opacity="1" transform="matrix(1,0,0,1,43.2760009765625,21.291000366210938)"><path fill="rgb(237,101,119)" fill-opacity="1" d=" M-39.801998138427734,-11.052000045776367 C-39.801998138427734,-11.052000045776367 10.039999961853027,-21.041000366210938 16.86199951171875,-18.7450008392334 C20.573999404907227,-17.496000289916992 31.104999542236328,-12.222000122070312 31.8439998626709,-10.687000274658203 C33.06100082397461,-8.154999732971191 43.025001525878906,10.258999824523926 42.61600112915039,12.527999877929688 C42.20600128173828,14.79800033569336 41.17599868774414,14.220000267028809 41.17599868774414,14.220000267028809 C41.17599868774414,14.220000267028809 42.516998291015625,17.20800018310547 38.6609992980957,16.812999725341797 C38.375,18.277999877929688 37.41699981689453,18.799999237060547 35.7599983215332,18.343000411987305 C35.7599983215332,18.343000411987305 33.83100128173828,21.041000366210938 27.381999969482422,16.46500015258789 C19.768999099731445,11.064000129699707 18.079999923706055,8.96399974822998 17.18199920654297,9.067000389099121 C16.283000946044922,9.170000076293945 -0.8519999980926514,14.104999542236328 -5.13700008392334,15.973999977111816 C-9.42199993133545,17.8439998626709 -29.031999588012695,16.367000579833984 -43.0260009765625,13.416999816894531 C-43.0260009765625,13.416999816894531 -39.242000579833984,-5.224999904632568 -39.801998138427734,-11.052000045776367z"/></g><g opacity="1" transform="matrix(1,0,0,1,69.91400146484375,24.950000762939453)"><path fill="rgb(5,3,112)" fill-opacity="1" d=" M-14.89799976348877,-9.675000190734863 C-9.75100040435791,-10.868000030517578 -4.309000015258789,-10.706000328063965 0.23800000548362732,-7.5920000076293945 C2.4070000648498535,-6.107999801635742 4.2210001945495605,-4.116000175476074 6.046000003814697,-2.197000026702881 C7.829999923706055,-0.32100000977516174 9.60200023651123,1.5740000009536743 11.23799991607666,3.6010000705718994 C12.873000144958496,5.625 14.338000297546387,7.797999858856201 15.543999671936035,10.145000457763672 C15.112000465393066,10.868000030517578 14.60200023651123,10.569000244140625 14.60200023651123,10.569000244140625 C14.60200023651123,10.569000244140625 14.609999656677246,10.592000007629395 14.619999885559082,10.628999710083008 C12.4350004196167,6.382999897003174 9.3100004196167,2.809999942779541 6.11299991607666,-0.5759999752044678 C4.4019999504089355,-2.390000104904175 2.7109999656677246,-4.269000053405762 0.7860000133514404,-5.828000068664551 C-1.2510000467300415,-7.480000019073486 -3.549999952316284,-8.531000137329102 -6.110000133514404,-8.864999771118164 C-9.015000343322754,-9.244000434875488 -11.906999588012695,-9.248000144958496 -14.765999794006348,-8.585000038146973 C-15.416000366210938,-8.4350004196167 -15.543999671936035,-9.524999618530273 -14.89799976348877,-9.675000190734863z"/></g><g opacity="1" transform="matrix(1,0,0,1,67.73100280761719,13.206000328063965)"><path fill="rgb(5,3,112)" fill-opacity="1" d=" M-10.616999626159668,-5.298999786376953 C-6.085000038146973,-5.193999767303467 -2.3929998874664307,-5.001999855041504 1.8680000305175781,-3.2760000228881836 C3.865999937057495,-2.4670000076293945 5.623000144958496,-1.2660000324249268 7.301000118255615,0.07000000029802322 C7.623000144958496,0.3269999921321869 8.765999794006348,1.3969999551773071 10.100000381469727,2.6570000648498535 C10.532999992370605,3.493000030517578 10.994000434875488,4.388000011444092 11.468999862670898,5.315999984741211 C9.489999771118164,3.4769999980926514 7.577000141143799,1.7059999704360962 6.921000003814697,1.1790000200271606 C5.21999979019165,-0.18700000643730164 3.4730000495910645,-1.4359999895095825 1.4390000104904175,-2.259999990463257 C-2.7239999771118164,-3.946000099182129 -6.335000038146973,-4.103000164031982 -10.76099967956543,-4.205999851226807 C-11.468999862670898,-4.2220001220703125 -11.319999694824219,-5.315999984741211 -10.616999626159668,-5.298999786376953z"/></g><g opacity="1" transform="matrix(1,0,0,1,68.11199951171875,29.62299919128418)"><path fill="rgb(5,3,112)" fill-opacity="1" d=" M-14.425000190734863,-7.283999919891357 C-10.03600025177002,-7.938000202178955 -5.318999767303467,-8.585000038146973 -1.125,-6.703999996185303 C0.8379999995231628,-5.823999881744385 2.4070000648498535,-4.379000186920166 3.9110000133514404,-2.875999927520752 C5.645999908447266,-1.1419999599456787 7.375,0.597000002861023 9.107000350952148,2.3329999446868896 C11.076000213623047,4.307000160217285 13.043999671936035,6.281000137329102 15.012999534606934,8.255000114440918 C15.07699966430664,8.319000244140625 15.10099983215332,8.392000198364258 15.126999855041504,8.46500015258789 C14.777000427246094,8.520999908447266 14.354000091552734,8.53499984741211 13.824999809265137,8.480999946594238 C13.817999839782715,8.517999649047852 13.805000305175781,8.54800033569336 13.79699993133545,8.585000038146973 C10.652999877929688,5.432000160217285 7.507999897003174,2.2799999713897705 4.363999843597412,-0.8730000257492065 C2.882999897003174,-2.3580000400543213 1.4299999475479126,-3.9519999027252197 -0.367000013589859,-5.065000057220459 C-2.2320001125335693,-6.21999979019165 -4.440999984741211,-6.704999923706055 -6.610000133514404,-6.822999954223633 C-9.178000450134277,-6.9629998207092285 -11.741000175476074,-6.568999767303467 -14.27299976348877,-6.190999984741211 C-14.97599983215332,-6.086999893188477 -15.126999855041504,-7.179999828338623 -14.425000190734863,-7.283999919891357z"/></g></g><g transform="matrix(1,0,0,1,953.75,874.436279296875)" opacity="1" style="display: block;"><g opacity="1" transform="matrix(1,0,0,1,67.50499725341797,28.631000518798828)"><path fill="rgb(86,65,213)" fill-opacity="1" d=" M67.25499725341797,-13.873000144958496 C67.25499725341797,-13.873000144958496 60.59000015258789,14.781000137329102 62.15999984741211,28.3799991607666 C62.15999984741211,28.3799991607666 -46.04899978637695,21.233999252319336 -46.04899978637695,21.233999252319336 C-51.08300018310547,20.900999069213867 -55.92499923706055,18.916000366210938 -59.52799987792969,15.385000228881836 C-63.75899887084961,11.23799991607666 -67.25499725341797,4.361999988555908 -64.31199645996094,-6.552000045776367 C-58.426998138427734,-28.381000518798828 -28.67799949645996,-22.797000885009766 -28.67799949645996,-22.797000885009766 C-28.67799949645996,-22.797000885009766 67.25499725341797,-13.873000144958496 67.25499725341797,-13.873000144958496z"/></g></g><g transform="matrix(1,0,0,1,896.8410034179688,733.4013061523438)" opacity="1" style="display: block;"><g opacity="1" transform="matrix(1,0,0,1,24.639999389648438,80.1760025024414)"><path fill="rgb(6,2,112)" fill-opacity="1" d=" M-1.0789999961853027,-49.06800079345703 C-1.0789999961853027,-49.06800079345703 -24.389999389648438,-31.656999588012695 20.5049991607666,49.06800079345703 C20.5049991607666,49.06800079345703 24.389999389648438,-23.599000930786133 -1.0789999961853027,-49.06800079345703z"/></g><g opacity="1" transform="matrix(1,0,0,1,59.39899826049805,97.11900329589844)"><path fill="rgb(86,65,213)" fill-opacity="1" d=" M-23.069000244140625,-83.95700073242188 C-23.069000244140625,-83.95700073242188 3.3589999675750732,-96.86799621582031 15.232999801635742,-56.15800094604492 C25.44499969482422,-21.145999908447266 37.7140007019043,46.97999954223633 40.94900131225586,65.36799621582031 C41.23400115966797,66.98799896240234 45.18600082397461,89.79000091552734 26.309999465942383,93.0260009765625 C3.8949999809265137,96.86799621582031 -0.05700000002980232,78.44000244140625 -3.4600000381469727,69.23300170898438 C-15.229000091552734,37.393001556396484 -25.204999923706055,4.098999977111816 -33.79800033569336,-30.386999130249023 C-34.45100021362305,-33.012001037597656 -35.16999816894531,-35.62300109863281 -35.9379997253418,-38.215999603271484 C-38.619998931884766,-47.277000427246094 -45.18600082397461,-76.10099792480469 -23.069000244140625,-83.95700073242188z"/></g></g><g transform="matrix(1,0,0,1,1000,1000)" opacity="1" style="display: block;"><g opacity="1" transform="matrix(1,0,0,1,0,0)"><path stroke-linecap="round" stroke-linejoin="miter" fill-opacity="0" stroke-miterlimit="4" stroke="rgb(6,2,112)" stroke-opacity="1" stroke-width="8" d=" M-269.4809875488281,470.6990051269531 C-237.00900268554688,470.40899658203125 -169.4029998779297,469.8059997558594 -124.60600280761719,469.406005859375"/></g></g><g transform="matrix(1,0,0,1,1560,520)" opacity="1" style="display: block;"><g opacity="1" transform="matrix(1,0,0,1,0,0)"><path stroke-linecap="round" stroke-linejoin="miter" fill-opacity="0" stroke-miterlimit="4" stroke="rgb(6,2,112)" stroke-opacity="1" stroke-width="8" d=" M-458.7030029296875,469.6669921875 C-393.6369934082031,469.55499267578125 -258.1719970703125,469.3219909667969 -168.41000366210938,469.1669921875"/></g></g><g transform="matrix(1,0,0,1,1052,281.9999694824219)" opacity="1" style="display: block;"><g opacity="1" transform="matrix(1,0,0,1,0,0)"><path stroke-linecap="round" stroke-linejoin="miter" fill-opacity="0" stroke-miterlimit="4" stroke="rgb(6,2,112)" stroke-opacity="1" stroke-width="8" d=" M-552.8280029296875,469.8179931640625 C-501.864990234375,469.74700927734375 -395.7619934082031,469.60101318359375 -325.45599365234375,469.5039978027344"/></g></g><g transform="matrix(1,0,0,1,1100.6939697265625,926.5089111328125)" opacity="1" style="display: block;"><g opacity="1" transform="matrix(1,0,0,1,0,0)"><path stroke-linecap="round" stroke-linejoin="miter" fill-opacity="0" stroke-miterlimit="4" stroke="rgb(6,2,112)" stroke-opacity="1" stroke-width="8" d=" M-552.8280029296875,469.8179931640625 C-501.864990234375,469.74700927734375 -395.7619934082031,469.60101318359375 -325.45599365234375,469.5039978027344"/></g></g><g transform="matrix(1,0,0,1,525.3370361328125,1389.6070556640625)" opacity="1" style="display: block;"><g opacity="1" transform="matrix(1,0,0,1,504.3819885253906,4.427000045776367)"><path stroke-linecap="round" stroke-linejoin="miter" fill-opacity="0" stroke-miterlimit="10" stroke="rgb(6,2,112)" stroke-opacity="1" stroke-width="8" d=" M-346.3819885253906,2.4609999656677246 C-346.3819885253906,2.4609999656677246 502.3819885253906,-2.427000045776367 502.3819885253906,-2.427000045776367"/></g></g></g></svg>