<svg width="40" height="40" viewBox="0 0 40 40" fill="none" xmlns="http://www.w3.org/2000/svg">
<g clip-path="url(#clip0_788_5931)">
<path d="M36.3451 28.296V28.296C35.8923 23.609 33.4535 19.3405 29.6457 16.5703V15.7475V15.7476C29.6239 9.38985 25.9657 3.60537 20.2309 0.860665V0.860665C20.0501 0.778216 19.8425 0.778216 19.6617 0.860665L19.6617 0.860665C13.9247 3.60635 10.2659 9.39411 10.2468 15.7543V16.5703H10.2468C6.43639 19.3391 3.99496 23.6079 3.54053 28.296H3.54053C3.52652 28.4814 3.58838 28.6645 3.71195 28.8035H3.71195C3.83956 28.9411 4.018 29.0204 4.20567 29.0229H10.3771L10.8777 30.7646C11.3728 32.4682 12.9299 33.643 14.704 33.6515H15.7668V33.6515C16.6181 35.6791 17.8787 37.5093 19.4697 39.0275C19.5929 39.1362 19.7511 39.197 19.9154 39.1989C20.0806 39.2016 20.2403 39.1402 20.3611 39.0275H20.3611C21.9716 37.5158 23.2491 35.6848 24.112 33.6515H25.1817C26.9471 33.6354 28.4922 32.4612 28.9805 30.7646L29.4811 29.0229H35.7691C35.9266 29.0117 36.0739 28.9405 36.1805 28.824C36.3137 28.6827 36.3744 28.488 36.3451 28.296L36.3451 28.296ZM10.2468 18.2572V27.6995H4.94623C5.48682 24.0056 7.37485 20.6423 10.2468 18.2572V18.2572ZM19.9428 37.6149C18.838 36.4481 17.9302 35.1095 17.2548 33.6515H22.6171H22.6171C21.9483 35.1099 21.0449 36.4488 19.9428 37.6149ZM27.7119 30.4012C27.3844 31.541 26.347 32.3303 25.1611 32.3418H14.7314C13.5478 32.3366 12.5091 31.552 12.1805 30.4149L11.5702 28.2755V15.7543V15.7541C11.5758 10.0094 14.8135 4.75671 19.943 2.17027L19.943 2.17027C25.0762 4.75374 28.3171 10.0077 28.3222 15.7543V28.2618L27.7119 30.4012ZM29.6457 27.6995V18.2572C32.5135 20.6447 34.3987 24.0072 34.9394 27.6995H29.6457Z" fill="#14418A"/>
<path d="M19.9372 25.6693C22.4973 25.6693 24.5726 23.5939 24.5726 21.0339C24.5726 18.4738 22.4973 16.3984 19.9372 16.3984C17.3771 16.3984 15.3018 18.4738 15.3018 21.0339V21.0339C15.3018 23.5939 17.3771 25.6693 19.9372 25.6693ZM19.9372 17.7219C21.7663 17.7181 23.2523 19.1978 23.256 21.027C23.2598 22.8562 21.7801 24.3421 19.9509 24.3459C18.1217 24.3496 16.6358 22.8699 16.6321 21.0407C16.632 21.0384 16.632 21.0361 16.632 21.0339V21.0339C16.632 19.2074 18.1107 17.7256 19.9372 17.7219H19.9372Z" fill="#14418A"/>
<path d="M19.937 13.6552C21.7661 13.659 23.252 12.1793 23.2558 10.3501C23.2596 8.52094 21.7798 7.03504 19.9507 7.03126C18.1215 7.02747 16.6356 8.50724 16.6318 10.3364C16.6318 10.341 16.6318 10.3455 16.6318 10.3501C16.6318 12.1755 18.1116 13.6552 19.937 13.6552ZM19.937 8.36153C21.0352 8.36532 21.9225 9.2587 21.9187 10.3569C21.9149 11.4552 21.0215 12.3424 19.9233 12.3386C18.8277 12.3349 17.9416 11.4457 17.9416 10.3501V10.3501C17.9302 9.2519 18.8112 8.35241 19.9094 8.34104C19.9186 8.34095 19.9278 8.34092 19.937 8.34095L19.937 8.36153Z" fill="#14418A"/>
<path d="M5.91423 31.6562C5.53552 31.6563 5.22852 31.9633 5.22852 32.342V34.1934C5.1292 34.5588 5.34495 34.9356 5.7104 35.0349C6.07586 35.1343 6.45263 34.9185 6.55195 34.5531C6.58395 34.4353 6.58395 34.3111 6.55195 34.1934V32.342V32.342C6.55283 31.9812 6.27407 31.6815 5.91422 31.6562H5.91423Z" fill="#14418A"/>
<path d="M9.27409 33.5C8.89538 33.5 8.58838 33.807 8.58838 34.1857V35.9686C8.68045 36.3359 9.05287 36.5591 9.42022 36.467C9.66558 36.4055 9.85717 36.2139 9.91866 35.9686V34.1857V34.1857C9.91931 33.8225 9.63664 33.5218 9.27408 33.5H9.27409Z" fill="#14418A"/>
<path d="M34.3302 31.6562C33.9515 31.6563 33.6445 31.9633 33.6445 32.342V34.1934C33.5452 34.5588 33.761 34.9356 34.1264 35.0349C34.4919 35.1343 34.8686 34.9185 34.968 34.5531C35 34.4353 35 34.3111 34.968 34.1934V32.342V32.342C34.9688 31.9812 34.6901 31.6815 34.3302 31.6562H34.3302Z" fill="#14418A"/>
<path d="M30.9701 33.5C30.5914 33.5 30.2844 33.807 30.2844 34.1857V35.9686C30.1851 36.334 30.4009 36.7108 30.7663 36.8101C31.1318 36.9094 31.5085 36.6937 31.6079 36.3282C31.6399 36.2105 31.6399 36.0863 31.6079 35.9686V34.1857V34.1857C31.6087 33.825 31.33 33.5252 30.9701 33.5H30.9701Z" fill="#14418A"/>
<path d="M25.2376 27.698H14.6433C14.2778 27.5987 13.9011 27.8144 13.8018 28.1799C13.7024 28.5453 13.9182 28.9221 14.2836 29.0214C14.4014 29.0534 14.5256 29.0534 14.6433 29.0214H25.2376C25.603 28.9221 25.8188 28.5453 25.7195 28.1799C25.6557 27.9452 25.4723 27.7618 25.2376 27.698Z" fill="#14418A"/>
</g>
<defs>
<clipPath id="clip0_788_5931">
<rect width="32.8114" height="38.4" fill="white" transform="translate(3.5415 0.798828)"/>
</clipPath>
</defs>
</svg>
