<svg width="40" height="40" viewBox="0 0 40 40" fill="none" xmlns="http://www.w3.org/2000/svg">
<g clip-path="url(#clip0_788_5958)">
<path d="M20.0222 3.875C20.4364 3.875 20.7722 3.53921 20.7722 3.125C20.7722 2.71079 20.4364 2.375 20.0222 2.375C19.608 2.375 19.2722 2.71079 19.2722 3.125C19.2722 3.53921 19.608 3.875 20.0222 3.875Z" fill="#14418A"/>
<path d="M38.9053 4.6655C38.7163 4.2185 38.4463 3.818 38.1013 3.47375C37.757 3.12875 37.3565 2.85875 36.9095 2.66975C36.4475 2.474 35.9563 2.375 35.4501 2.375H23.3968C22.9828 2.375 22.6468 2.71175 22.6468 3.125C22.6468 3.53825 22.9828 3.875 23.3968 3.875H35.4501C36.6883 3.87725 37.6978 4.88675 37.7001 6.125V23.375H2.30005V6.125C2.3023 4.88675 3.3118 3.87725 4.55005 3.875H16.646C17.06 3.875 17.396 3.53825 17.396 3.125C17.396 2.71175 17.06 2.375 16.646 2.375H4.55005C4.0438 2.375 3.55255 2.474 3.09055 2.66975C2.64355 2.85875 2.24305 3.12875 1.89805 3.47375C1.5538 3.818 1.2838 4.2185 1.0948 4.6655C0.899049 5.1275 0.800049 5.61875 0.800049 6.125V26.375C0.800049 26.8813 0.899049 27.3725 1.0948 27.8345C1.2838 28.2815 1.5538 28.682 1.89805 29.0263C2.24305 29.3713 2.64355 29.6413 3.09055 29.8303C3.55255 30.026 4.0438 30.125 4.55005 30.125H15.875V32.75H14.75C12.6823 32.75 11 34.4323 11 36.5V36.875C11 37.2892 11.3358 37.625 11.75 37.625H28.25C28.6643 37.625 29 37.2892 29 36.875V36.5C29 34.4323 27.3178 32.75 25.25 32.75H24.125V30.125H35.4501C35.9563 30.125 36.4475 30.026 36.9095 29.8303C37.3565 29.6413 37.757 29.3713 38.1013 29.0263C38.4463 28.682 38.7163 28.2815 38.9053 27.8345C39.1011 27.3725 39.2001 26.8813 39.2001 26.375V6.125C39.2001 5.61875 39.1011 5.1275 38.9053 4.6655ZM25.25 34.25C26.363 34.25 27.2898 35.0623 27.4688 36.125H12.5313C12.7104 35.0623 13.6372 34.25 14.75 34.25H16.625C17.0393 34.25 17.375 33.9142 17.375 33.5V30.125H22.625V33.5C22.625 33.9142 22.9608 34.25 23.375 34.25H25.25ZM37.7001 26.375C37.6978 27.6133 36.6883 28.6228 35.4501 28.625H4.55005C3.3118 28.6228 2.3023 27.6133 2.30005 26.375V24.875H37.7001V26.375Z" fill="#14418A"/>
<path d="M12.0373 16.1573C11.9882 16.1347 11.9143 16.0816 11.8458 15.9876C11.7772 15.8935 11.7494 15.8069 11.7429 15.7532L14.519 13.7308C14.5681 13.7534 14.642 13.8065 14.7105 13.9005C14.779 13.9946 14.8069 14.0812 14.8134 14.1349L12.0373 16.1573ZM12.0727 16.1698C12.0727 16.1699 12.0718 16.1698 12.0699 16.1693C12.0717 16.1695 12.0726 16.1697 12.0727 16.1698ZM14.8144 14.1724C14.8144 14.1723 14.8145 14.1714 14.8148 14.1696C14.8147 14.1715 14.8145 14.1724 14.8144 14.1724ZM14.4836 13.7183C14.4836 13.7182 14.4845 13.7183 14.4864 13.7188C14.4846 13.7186 14.4836 13.7183 14.4836 13.7183ZM11.7418 15.7157C11.7419 15.7158 11.7418 15.7167 11.7415 15.7185C11.7416 15.7165 11.7418 15.7157 11.7418 15.7157Z" fill="#14418A" stroke="#14418A"/>
<path d="M9.93793 19.5736C10.9922 19.5736 11.8468 18.719 11.8468 17.6647C11.8468 16.6105 10.9922 15.7559 9.93793 15.7559C8.88369 15.7559 8.02905 16.6105 8.02905 17.6647C8.02905 18.719 8.88369 19.5736 9.93793 19.5736Z" stroke="#14418A" stroke-width="2"/>
<path d="M16.9819 14.1185C18.0361 14.1185 18.8907 13.2639 18.8907 12.2097C18.8907 11.1554 18.0361 10.3008 16.9819 10.3008C15.9276 10.3008 15.073 11.1554 15.073 12.2097C15.073 13.2639 15.9276 14.1185 16.9819 14.1185Z" stroke="#14418A" stroke-width="2"/>
<path d="M22.662 20.2533C23.7163 20.2533 24.5709 19.3987 24.5709 18.3444C24.5709 17.2902 23.7163 16.4355 22.662 16.4355C21.6078 16.4355 20.7532 17.2902 20.7532 18.3444C20.7532 19.3987 21.6078 20.2533 22.662 20.2533Z" stroke="#14418A" stroke-width="2"/>
<path d="M30.842 11.847C31.8962 11.847 32.7509 10.9924 32.7509 9.93817C32.7509 8.88393 31.8962 8.0293 30.842 8.0293C29.7877 8.0293 28.9331 8.88393 28.9331 9.93817C28.9331 10.9924 29.7877 11.847 30.842 11.847Z" stroke="#14418A" stroke-width="2"/>
<path d="M20.9951 17.5101L17.7898 14.1386C17.7882 14.1369 17.7857 14.1339 17.7833 14.1257C17.7806 14.1166 17.7777 14.0994 17.7808 14.0735C17.7872 14.0204 17.8176 13.9461 17.8881 13.8791C17.9586 13.8121 18.0343 13.7855 18.0877 13.7818C18.1136 13.78 18.1307 13.7837 18.1397 13.7869C18.1477 13.7897 18.1506 13.7924 18.1522 13.794L21.3575 17.1656C21.3591 17.1672 21.3616 17.1702 21.364 17.1784C21.3667 17.1875 21.3695 17.2048 21.3664 17.2306C21.3601 17.2837 21.3297 17.358 21.2592 17.425C21.1887 17.492 21.113 17.5186 21.0596 17.5223C21.0337 17.5241 21.0165 17.5204 21.0076 17.5172C20.9996 17.5144 20.9967 17.5117 20.9951 17.5101Z" fill="#14418A" stroke="#14418A"/>
<path d="M23.9033 16.8215L27.4719 13.2182C27.4935 13.1963 27.5296 13.178 27.5857 13.1806C27.6429 13.1833 27.7129 13.2089 27.7735 13.2689C27.8341 13.3289 27.8603 13.3986 27.8636 13.4558C27.8667 13.5119 27.8488 13.5481 27.8271 13.57L24.2585 17.1734C24.2369 17.1953 24.2008 17.2135 24.1447 17.2109C24.0875 17.2082 24.0175 17.1826 23.9569 17.1226C23.8964 17.0626 23.8701 16.9929 23.8668 16.9357C23.8637 16.8797 23.8816 16.8434 23.9033 16.8215Z" fill="#14418A" stroke="#14418A"/>
</g>
<defs>
<clipPath id="clip0_788_5958">
<rect width="38.4" height="38.4" fill="white" transform="translate(0.800049 0.800781)"/>
</clipPath>
</defs>
</svg>
