<svg width="39" height="39" viewBox="0 0 39 39" fill="none" xmlns="http://www.w3.org/2000/svg">
    <path d="M24.5245 25.4635C24.6741 25.0029 25.3259 25.0029 25.4755 25.4635L26.4593 28.4914C26.5263 28.6974 26.7183 28.8369 26.9349 28.8369H30.1186C30.6029 28.8369 30.8043 29.4567 30.4124 29.7414L27.8368 31.6127C27.6615 31.74 27.5882 31.9657 27.6552 32.1717L28.639 35.1996C28.7886 35.6602 28.2614 36.0433 27.8695 35.7586L25.2939 33.8873C25.1186 33.76 24.8814 33.76 24.7061 33.8873L22.1305 35.7586C21.7386 36.0433 21.2114 35.6602 21.361 35.1996L22.3448 32.1717C22.4118 31.9657 22.3385 31.74 22.1632 31.6127L19.5876 29.7414C19.1957 29.4567 19.3971 28.8369 19.8814 28.8369H23.0651C23.2817 28.8369 23.4737 28.6974 23.5407 28.4914L24.5245 25.4635Z" fill="#14418A" />
    <path fill-rule="evenodd" clip-rule="evenodd" d="M10.7331 23.9813C9.52847 24.5403 8.43172 25.307 7.49309 26.2464C5.43809 28.2976 4.27559 31.0051 4.20059 33.8926C4.19958 33.9326 4.20661 33.9724 4.22123 34.0097C4.23586 34.047 4.2578 34.0809 4.28576 34.1096C4.31371 34.1383 4.34713 34.161 4.38402 34.1766C4.42092 34.1921 4.46055 34.2001 4.50059 34.2001H6.60059C6.76184 34.2001 6.89684 34.0726 6.90059 33.9113C6.97559 31.7363 7.85684 29.7001 9.40184 28.1551C11.0181 26.5388 13.1668 25.6501 15.4506 25.6501C16.5744 25.647 17.6876 25.8668 18.7259 26.2967C19.1699 26.4806 19.5964 26.7014 20.0011 26.9561H21.3994C21.6175 26.9561 21.8104 26.8148 21.8762 26.607L22.3001 25.2673C21.6425 24.7627 20.9303 24.3312 20.1756 23.9813C21.8706 22.6051 22.9581 20.5051 22.9581 18.1501C22.9581 14.0476 19.6618 10.7138 15.5706 10.6501C11.4156 10.5863 7.95059 13.9951 7.95059 18.1501C7.95059 20.5051 9.03434 22.6051 10.7331 23.9813ZM18.8443 21.5438C17.9406 22.4514 16.7331 22.9501 15.4506 22.9501C14.8194 22.9519 14.1942 22.8286 13.611 22.5872C13.0278 22.3458 12.4983 21.9912 12.0531 21.5438C11.1456 20.6364 10.6468 19.4326 10.6468 18.1501C10.6468 16.8526 11.1568 15.6339 12.0868 14.7226C12.9943 13.8338 14.2281 13.3388 15.4993 13.3501C16.7856 13.3651 17.9893 13.8788 18.8893 14.8013C19.7481 15.6826 20.2393 16.8714 20.2506 18.1013C20.2594 18.7402 20.1394 19.3742 19.8978 19.9657C19.6562 20.5571 19.2979 21.0939 18.8443 21.5438ZM24.8968 18.1501C24.8968 18.4839 24.8781 18.8138 24.8443 19.1401C24.8256 19.2901 24.9231 19.4288 25.0693 19.4663C26.5431 19.8376 27.8931 20.6026 28.9956 21.7051C30.5443 23.2501 31.4256 25.2863 31.4968 27.4613C31.5006 27.6226 31.6356 27.7501 31.7968 27.7501H33.9006C33.9406 27.7501 33.9803 27.7421 34.0172 27.7266C34.054 27.711 34.0875 27.6883 34.1154 27.6596C34.1434 27.6309 34.1653 27.597 34.1799 27.5597C34.1946 27.5224 34.2016 27.4826 34.2006 27.4426C34.1256 24.5513 32.9631 21.8438 30.9081 19.7926C29.9556 18.8401 28.8568 18.0788 27.6643 17.5276C29.3631 16.1514 30.4468 14.0513 30.4468 11.6963C30.4468 7.5451 26.9818 4.13635 22.8231 4.2001C19.9431 4.2451 17.4531 5.9101 16.2343 8.32135C16.1406 8.50885 16.2606 8.73385 16.4706 8.75635C17.1868 8.83135 17.8843 8.9926 18.5443 9.22135C18.6718 9.26635 18.8181 9.2176 18.8931 9.10135C19.1068 8.77135 19.3618 8.46385 19.6581 8.18635C20.5318 7.36885 21.6868 6.9076 22.8831 6.89635C24.2068 6.88135 25.4518 7.39885 26.3781 8.3476C27.2218 9.2101 27.7056 10.3538 27.7393 11.5576C27.7593 12.222 27.6406 12.8833 27.3907 13.4993C27.1408 14.1153 26.7653 14.6724 26.2881 15.1351C25.8831 15.5326 25.4143 15.8476 24.9043 16.0764C24.7806 16.1326 24.7093 16.2713 24.7356 16.4063C24.8406 16.9726 24.8968 17.5539 24.8968 18.1501Z" fill="#14418A" />
</svg>